<svg xmlns="http://www.w3.org/2000/svg" width="256" height="256" viewBox="0 0 256 256" fill="none">
  <title>歷年醫囑清單</title>
  <defs>
    <linearGradient id="orders-history-ink" x1="54" y1="44" x2="199" y2="217" gradientUnits="userSpaceOnUse">
      <stop stop-color="#246253" />
      <stop offset="1" stop-color="#1A5548" />
    </linearGradient>
    <linearGradient id="orders-history-paper" x1="65" y1="48" x2="191" y2="216" gradientUnits="userSpaceOnUse">
      <stop stop-color="#FFFFFF" />
      <stop offset="1" stop-color="#FAFBFC" />
    </linearGradient>
    <linearGradient id="orders-history-accent" x1="84" y1="69" x2="166" y2="194" gradientUnits="userSpaceOnUse">
      <stop stop-color="#24836A" />
      <stop offset="1" stop-color="#08744F" />
    </linearGradient>
    <linearGradient id="orders-history-muted" x1="85" y1="148" x2="177" y2="196" gradientUnits="userSpaceOnUse">
      <stop stop-color="#B8C3C8" />
      <stop offset="1" stop-color="#ADB9BF" />
    </linearGradient>
    <mask id="orders-history-clock-clearance" x="0" y="0" width="256" height="256" maskUnits="userSpaceOnUse" maskContentUnits="userSpaceOnUse" style="mask-type:luminance">
      <rect width="256" height="256" fill="#fff" />
      <circle cx="182" cy="183" r="43" fill="#000" />
    </mask>
  </defs>
  <g mask="url(#orders-history-clock-clearance)">
    <g stroke="url(#orders-history-ink)" stroke-width="7.8" stroke-linecap="round" stroke-linejoin="round">
      <path d="M85 56V47A9 9 0 0 1 94 38H160A8 8 0 0 1 165.7 40.3L195.7 70.3A8 8 0 0 1 198 76V191A9 9 0 0 1 189 200H94A9 9 0 0 1 85 191Z" fill="url(#orders-history-paper)" />
      <path d="M64 75V62A9 9 0 0 1 73 53H142A8 8 0 0 1 147.7 55.3L175.7 83.3A8 8 0 0 1 178 89V199A9 9 0 0 1 169 208H73A9 9 0 0 1 64 199Z" fill="url(#orders-history-paper)" />
      <path d="M53 70H123L156 101V201A9 9 0 0 1 147 210H53A10 10 0 0 1 43 200V80A10 10 0 0 1 53 70Z" fill="url(#orders-history-paper)" />
      <path d="M123 72V96A5 5 0 0 0 128 101H154" />
    </g>
    <g fill="url(#orders-history-ink)" transform="translate(62 84) scale(.79) translate(-85 -68)">
      <path fill-rule="evenodd" d="M88 68H102C114 68 120 74 120 83.5C120 90.6 116.8 95.3 110.7 97.8L122 114H109.7L99.6 99.2H95V112.5Q95 115 92.5 115H87.5Q85 115 85 112.5V71Q85 68 88 68ZM95 77V90H101.5C107.2 90 110 87.9 110 83.5C110 79.1 107.2 77 101.5 77H95Z" />
      <path d="M112.2 94H101.7Q99.7 94 100.9 95.7L113.1 112.5L99.2 129.5Q97.8 131.5 100.3 131.5H108.5Q109.7 131.5 110.6 130.3L118.9 119.9L127.2 130.3Q128.1 131.5 129.4 131.5H138Q140.2 131.5 138.8 129.5L125.1 112L138 95.6Q139.2 94 137.1 94H128.9Q127.4 94 126.5 95.1L118.7 105L112.2 94Z" />
    </g>
    <circle cx="67" cy="150" r="6.4" fill="url(#orders-history-accent)" />
    <rect x="81" y="145.5" width="56" height="8.5" rx="3" fill="url(#orders-history-muted)" />
    <circle cx="67" cy="171" r="6.4" fill="url(#orders-history-accent)" />
    <rect x="81" y="166.5" width="48" height="8.5" rx="3" fill="url(#orders-history-muted)" />
    <circle cx="67" cy="192" r="6.4" fill="url(#orders-history-accent)" />
    <rect x="81" y="187.5" width="38" height="8.5" rx="3" fill="url(#orders-history-muted)" />
  </g>
  <g>
    <path d="M157 203.5A33 33 0 1 0 149 181" stroke="url(#orders-history-ink)" stroke-width="8" stroke-linecap="round" />
    <path d="M140 176H159Q162 176 160.3 178.6L151.5 189.9Q149.1 193 146.8 190L138 179.3Q135.6 176 140 176Z" fill="url(#orders-history-ink)" />
    <path d="M182 165V188L194 194" stroke="url(#orders-history-accent)" stroke-width="7.6" stroke-linecap="round" stroke-linejoin="round" />
  </g>
</svg>
